<svg width="58" height="28" viewBox="0 0 58 28" fill="none" xmlns="http://www.w3.org/2000/svg">
<path d="M27.7241 28C18.4828 28 9.24138 28 0 28C0 18.6665 0 9.33354 0 0C9.24138 0 18.4828 0 27.7241 0C27.7139 0.120437 27.7139 27.8796 27.7241 28ZM13.7455 4.70681C10.2314 11.8743 6.75104 18.9728 3.26166 26.0901C10.2555 26.0901 17.1956 26.0901 24.1725 26.0901C20.6971 18.963 17.2349 11.8627 13.7455 4.70681ZM25.7665 25.0319C25.7665 17.2726 25.7665 9.60865 25.7665 1.95144C22.0156 1.95144 18.2889 1.95144 14.512 1.95144C18.2647 9.64594 21.9963 17.3001 25.7665 25.0319ZM1.89358 24.4291C1.91411 24.4346 1.93405 24.4407 1.95458 24.4462C5.62637 16.9571 9.29816 9.46742 12.9814 1.95572C9.25285 1.95572 5.57926 1.95572 1.89358 1.95572C1.89358 9.46681 1.89358 16.9479 1.89358 24.4291Z" fill="black"/>
<path d="M30.2069 0C39.4485 0 48.6895 0 57.9311 0C57.9311 9.33354 57.9311 18.6665 57.9311 28C48.6895 28 39.4485 28 30.2069 28C30.2069 18.6665 30.2069 9.33354 30.2069 0ZM56.0291 22.1469C56.0291 15.3976 56.0291 8.67083 56.0291 1.95144C48.0496 1.95144 40.095 1.95144 32.1379 1.95144C32.1379 8.69528 32.1379 15.4135 32.1379 22.1469C40.1095 22.1469 48.0569 22.1469 56.0291 22.1469ZM56.0436 24.1026C48.0551 24.1026 40.0938 24.1026 32.1307 24.1026C32.1307 24.7769 32.1307 25.425 32.1307 26.0859C40.1095 26.0859 48.0708 26.0859 56.0436 26.0859C56.0436 25.4189 56.0436 24.7708 56.0436 24.1026Z" fill="black"/>
</svg>
